# Blender 4.3.1
# www.blender.org
mtllib fireball.mtl
o Cube
v -0.250000 -0.250000 0.250000
v -0.250000 0.250000 0.250000
v -0.250000 -0.250000 -0.250000
v -0.250000 0.250000 -0.250000
v 0.250000 -0.250000 0.250000
v 0.250000 0.250000 0.250000
v 0.250000 -0.250000 -0.250000
v 0.250000 0.250000 -0.250000
vn -1.0000 -0.0000 -0.0000
vn -0.0000 -0.0000 -1.0000
vn 1.0000 -0.0000 -0.0000
vn -0.0000 -0.0000 1.0000
vn -0.0000 -1.0000 -0.0000
vn -0.0000 1.0000 -0.0000
vt 0.312095 -0.251622
vt 0.687905 -0.251622
vt 0.687905 0.124189
vt 0.312095 0.124189
vt 0.687905 0.500000
vt 0.312095 0.500000
vt 0.687905 0.875811
vt 0.312095 0.875811
vt 0.687905 1.251622
vt 0.312095 1.251622
vt -0.063716 0.500000
vt -0.063716 0.875811
vt 1.063716 0.500000
vt 1.063716 0.875811
s 0
usemtl magma
f 1/1/1 2/2/1 4/3/1 3/4/1
f 3/4/2 4/3/2 8/5/2 7/6/2
f 7/6/3 8/5/3 6/7/3 5/8/3
f 5/8/4 6/7/4 2/9/4 1/10/4
f 3/11/5 7/6/5 5/8/5 1/12/5
f 8/5/6 4/13/6 2/14/6 6/7/6
