# Blender 4.3.1
# www.blender.org
mtllib icicle.mtl
o Cube
v 0.012600 0.500000 -0.012600
v 0.060000 -0.500000 -0.060000
v 0.012600 0.500000 0.012600
v 0.060000 -0.500000 0.060000
v -0.012600 0.500000 -0.012600
v -0.060000 -0.500000 -0.060000
v -0.012600 0.500000 0.012600
v -0.060000 -0.500000 0.060000
vn -0.0000 1.0000 -0.0000
vn -0.0000 0.0473 0.9989
vn -0.9989 0.0473 -0.0000
vn -0.0000 -1.0000 -0.0000
vn 0.9989 0.0473 -0.0000
vn -0.0000 0.0473 -0.9989
vt 0.752662 0.307495
vt 0.752662 0.377495
vt 0.682662 0.377495
vt 0.682662 0.307495
vt 0.001370 0.997076
vt 0.067589 -0.001713
vt 0.102794 -0.001713
vt 0.169013 0.997076
vt 0.235232 -0.001713
vt 0.270437 -0.001713
vt 0.336656 0.997076
vt 0.875066 0.001756
vt 0.875066 0.184826
vt 0.691995 0.184826
vt 0.691995 0.001756
vt 0.345513 0.995865
vt 0.411732 -0.002924
vt 0.446937 -0.002924
vt 0.513156 0.995865
vt 0.579375 -0.002924
vt 0.614580 -0.002924
vt 0.680799 0.995865
s 0
usemtl Material
f 1/1/1 5/2/1 7/3/1 3/4/1
f 4/5/2 3/6/2 7/7/2 8/8/2
f 8/8/3 7/9/3 5/10/3 6/11/3
f 6/12/4 2/13/4 4/14/4 8/15/4
f 2/16/5 1/17/5 3/18/5 4/19/5
f 6/19/6 5/20/6 1/21/6 2/22/6
