# Blender 4.5.1 LTS
# www.blender.org
mtllib shield.mtl
o Cube
v -0.400000 -0.500000 0.050000
v -0.500000 0.500000 0.050000
v -0.400000 -0.500000 -0.050000
v -0.500000 0.464757 -0.050000
v 0.400000 -0.500000 0.050000
v 0.500000 0.500000 0.050000
v 0.400000 -0.500000 -0.050000
v 0.500000 0.464757 -0.050000
v -0.500000 0.000000 0.050000
v -0.500000 0.000000 -0.050000
v 0.000000 -0.875000 -0.050000
v 0.000000 0.400000 0.025000
v 0.500000 0.000000 -0.050000
v 0.500000 0.000000 0.050000
v 0.000000 -0.875000 0.050000
v 0.000000 0.400000 0.125000
v 0.000000 0.000000 0.125000
v 0.000000 0.000000 0.032413
v -0.440000 -0.544063 -0.082932
v 0.440000 -0.544063 0.072532
v -0.550000 0.555938 0.072532
v 0.440000 -0.544063 -0.082932
v -0.550000 0.555938 -0.082932
v 0.550000 0.555938 -0.082932
v -0.440000 -0.544063 0.072532
v 0.550000 0.555938 0.072532
v 0.000000 0.445938 0.157064
v 0.000000 0.473813 0.021794
v 0.000000 -0.956563 0.072532
v 0.000000 -0.956563 -0.082932
v 0.550000 0.005938 0.072532
v 0.550000 0.005938 -0.082932
v -0.550000 0.005938 -0.082932
v -0.550000 0.005938 0.072532
v 0.000000 0.445938 0.157064
v 0.000000 -0.956563 0.072532
v 0.550000 0.005938 0.072532
v 0.550000 0.555938 0.072532
v 0.440000 -0.544063 0.072532
v 0.440000 -0.544063 -0.082932
v 0.550000 0.005938 -0.082932
v 0.550000 0.520694 -0.082932
v 0.000000 0.445938 0.033666
v 0.000000 -0.956563 -0.082932
v -0.550000 0.005938 -0.082932
v -0.550000 0.520694 -0.082932
v -0.550000 0.555938 0.072532
v -0.550000 0.005938 0.072532
v -0.440000 -0.544063 0.072532
v -0.440000 -0.544063 -0.082932
v -0.492849 -0.573452 -0.082932
v -0.492849 -0.573452 0.072532
v -0.610177 -0.000021 0.072532
v -0.591107 0.612185 0.072532
v -0.607977 0.573127 -0.082932
v -0.610177 -0.000021 -0.082932
v 0.000000 -1.017034 -0.082932
v 0.000000 0.506409 0.017650
v 0.607977 0.573127 -0.082932
v 0.610177 -0.000021 -0.082932
v 0.492849 -0.573452 -0.082932
v 0.492849 -0.573452 0.072532
v 0.591107 0.612185 0.072532
v 0.610177 -0.000021 0.072532
v 0.000000 -1.017034 0.072532
v 0.000000 0.506409 0.157064
vn 0.1574 -0.1551 -0.9753
vn -0.1550 -0.0085 -0.9879
vn -0.3312 0.3533 -0.8749
vn -0.1483 -0.0000 0.9889
vn -0.5558 0.1112 -0.8238
vn 0.5500 -0.0000 -0.8351
vn -0.1574 -0.1551 -0.9753
vn 0.4176 0.0835 0.9048
vn -0.1085 -0.0620 0.9922
vn 0.1085 -0.0620 0.9922
vn 0.1483 -0.0000 0.9889
vn 0.2315 -0.5453 0.8056
vn -0.1191 0.0680 -0.9906
vn 0.1191 0.0680 -0.9906
vn 0.1550 -0.0085 -0.9879
vn 0.3312 0.3533 -0.8749
vn -0.0000 1.0000 -0.0000
vn -0.1689 -0.1822 -0.9686
vn -0.0000 -0.0000 1.0000
vn 0.1565 -0.0551 0.9861
vn -0.0000 -0.0000 -1.0000
vn -0.1565 -0.0551 0.9861
vn -0.2315 -0.5453 0.8056
vn 0.2422 0.2584 0.9352
vn 0.5558 0.1112 -0.8238
vn -0.2422 0.2584 0.9352
vn -0.4109 -0.0000 0.9117
vn -0.4176 0.0835 0.9048
vn -0.5500 -0.0000 -0.8351
vn 0.4109 -0.0000 0.9117
vn 0.1689 -0.1822 -0.9686
vn -0.9985 0.0179 0.0519
vn 0.9985 0.0179 0.0519
vn 0.6690 -0.7433 -0.0000
vn 0.1620 0.9770 -0.1387
vn -0.1620 0.9770 -0.1387
vn -0.6690 -0.7433 -0.0000
vn 0.9797 -0.2005 -0.0000
vn -0.9797 -0.2005 -0.0000
vn -0.1904 0.1408 -0.9716
vn 0.1904 0.1408 -0.9716
vt 0.903695 0.517876
vt 0.877982 0.136181
vt 0.919497 0.000986
vt 0.908566 0.549183
vt 0.000000 0.230209
vt 0.031221 0.029696
vt 0.500000 0.000000
vt 0.500000 0.237801
vt 0.707758 1.038274
vt 0.710332 0.647685
vt 0.739035 0.661407
vt 0.736204 1.091055
vt 0.000000 0.265257
vt 0.000000 0.047221
vt 0.500000 0.272545
vt 0.743462 0.735975
vt 0.730736 0.558735
vt 0.871404 0.549183
vt 0.885402 0.744147
vt 0.730736 0.149179
vt 0.756411 0.015383
vt 0.582919 0.131021
vt 0.590869 0.513499
vt 0.588771 0.545112
vt 0.529675 -0.000000
vt 0.880242 0.320196
vt 0.871706 0.155459
vt 0.961198 0.151047
vt 0.970588 0.332258
vt 0.329232 0.793129
vt 0.465846 0.553816
vt 0.534154 0.553816
vt 0.500000 0.272545
vt 1.000000 0.265257
vt 0.670768 0.793129
vt 0.500000 0.000000
vt 1.000000 0.047221
vt 0.795113 0.112821
vt 0.477293 0.270321
vt 0.499170 0.180053
vt 0.852736 -0.000000
vt 0.347100 0.724098
vt 0.469420 0.501353
vt 0.530580 0.501353
vt 0.500000 0.237801
vt 1.000000 0.230209
vt 0.652900 0.724098
vt 0.500000 -0.000000
vt 0.968779 0.029696
vt 0.693536 0.640849
vt 0.696110 1.031438
vt 0.667664 1.084220
vt 0.664833 0.654572
vt 0.048500 0.199184
vt 0.562764 0.501803
vt 0.518466 -0.000000
vt 0.410735 0.452220
vt 0.453757 0.237109
vt 0.477293 0.239440
vt 0.431405 0.463715
vt 0.606232 0.842079
vt 0.595145 0.445461
vt 0.615515 0.433804
vt 0.615515 0.839281
vt 0.072300 0.474636
vt 0.259233 0.649886
vt 0.259233 0.675578
vt 0.049847 0.487123
vt 0.453757 0.021999
vt 0.238647 0.065021
vt 0.238647 0.041370
vt 0.469834 0.000000
vt 0.238647 0.613553
vt 0.238647 0.637204
vt 0.025566 0.240970
vt 0.000000 0.243501
vt 0.066558 0.452220
vt 0.045888 0.463715
vt 0.023536 0.021999
vt 0.023536 0.237109
vt 0.000000 0.239440
vt 0.007459 0.000000
vt 0.798717 0.433804
vt 0.852736 0.359884
vt 0.852736 0.532868
vt 0.940331 0.566196
vt 0.673131 0.554665
vt 0.660406 0.731905
vt 0.518466 0.740076
vt 0.532464 0.545113
vt 0.567639 0.754000
vt 0.595145 0.966671
vt 0.507550 1.000000
vt 0.477293 0.766061
vt 0.595145 0.451947
vt 0.576175 0.589263
vt 0.486683 0.584851
vt 0.507550 0.433803
vt 0.730737 0.131021
vt 0.693396 0.000000
vt 0.852736 0.018144
vt 0.940331 0.000000
vt 0.673131 0.555536
vt 0.673131 0.707776
vt 0.673131 0.545113
vt 0.930663 0.000000
vt 0.930663 0.503754
vt 0.673131 0.545112
vt 0.549609 0.847205
vt 0.736824 0.811820
vt 0.720898 1.404780
vt 0.549609 1.439006
vt 0.935162 -0.436402
vt 1.089458 -0.439006
vt 1.089458 0.169417
vt 0.919875 0.171901
vt -0.420195 0.231845
vt -0.160534 0.233472
vt -0.160534 0.821458
vt -0.420195 0.819831
vt 0.520988 0.551783
vt 0.811324 0.535633
vt 0.748587 0.725005
vt 0.492775 0.717292
vt 0.455208 0.538712
vt 0.357436 0.310544
vt 0.541299 0.181156
vt 0.642632 0.374120
vt 0.724497 0.208283
vt 0.983650 0.211147
vt 0.983650 0.811821
vt 0.724497 0.808957
vt 0.027119 0.199184
vt 0.027119 0.787170
vt 0.549609 0.784558
vt 0.549610 0.183885
vt 1.357439 1.131157
vt 1.187746 0.700853
vt 1.197626 0.714550
vt 1.377343 1.133953
vt 0.025566 0.007303
vt 0.000935 0.000000
vt 0.446166 0.474636
vt 0.492900 0.240970
vt 0.518466 0.243501
vt 0.468619 0.487123
vt 0.983650 0.587188
vt 1.166578 0.183885
vt 1.187746 0.184503
vt 0.992536 0.570682
vt 0.492900 0.007303
vt 0.517531 0.000000
s 0
g Cube_Base
usemtl Base
f 12/1/1 4/2/1 46/3/1 43/4/1
f 18/5/2 12/6/2 8/7/2 13/8/2
f 11/9/3 7/10/3 40/11/3 44/12/3
f 17/13/4 16/14/4 2/7/4 9/15/4
f 7/16/5 13/17/5 41/18/5 40/19/5
f 4/2/6 10/20/6 45/21/6 46/3/6
f 8/22/7 12/23/7 43/24/7 42/25/7
f 1/26/8 9/27/8 48/28/8 49/29/8
f 15/30/9 17/13/9 9/15/9 1/31/9
f 5/32/10 14/33/10 17/34/10 15/35/10
f 14/33/11 6/36/11 16/37/11 17/34/11
f 16/38/12 6/39/12 38/40/12 35/41/12
f 11/42/13 18/5/13 13/8/13 7/43/13
f 3/44/14 10/45/14 18/46/14 11/47/14
f 10/45/15 4/48/15 12/49/15 18/46/15
f 3/50/16 11/51/16 44/52/16 50/53/16
f 39/54/17 36/54/17 29/54/17 20/54/17
f 45/54/17 50/54/17 19/54/17 33/54/17
f 36/54/17 49/54/17 25/54/17 29/54/17
f 47/54/17 35/54/17 27/54/17 21/54/17
f 50/54/17 44/54/17 30/54/17 19/54/17
f 35/54/17 38/54/17 26/54/17 27/54/17
f 49/54/17 48/54/17 34/54/17 25/54/17
f 2/83/23 16/38/23 35/41/23 47/84/23
f 15/85/24 1/26/24 49/29/24 36/86/24
f 10/87/25 3/88/25 50/89/25 45/90/25
f 5/91/26 15/92/26 36/93/26 39/94/26
f 6/95/27 14/96/27 37/97/27 38/98/27
f 14/96/28 5/91/28 39/94/28 37/97/28
f 13/99/29 8/22/29 42/25/29 41/100/29
f 9/27/30 2/101/30 47/102/30 48/28/30
f 46/103/17 45/104/17 33/104/17 23/105/17
f 40/54/17 41/54/17 32/54/17 22/54/17
f 44/54/17 40/54/17 22/54/17 30/54/17
f 48/54/17 47/54/17 21/54/17 34/54/17
f 41/108/17 42/108/17 24/108/17 32/108/17
f 37/54/17 39/54/17 20/54/17 31/54/17
f 38/54/17 37/54/17 31/54/17 26/54/17
g Cube_Frame
usemtl Frame
f 42/25/18 43/24/18 28/55/18 24/56/18
f 25/57/19 34/58/19 53/59/19 52/60/19
f 27/61/20 26/62/20 63/63/20 66/64/20
f 19/65/21 30/66/21 57/67/21 51/68/21
f 21/69/22 27/70/22 66/71/22 54/72/22
f 29/73/19 25/57/19 52/60/19 65/74/19
f 33/75/21 19/65/21 51/68/21 56/76/21
f 20/77/19 29/73/19 65/74/19 62/78/19
f 26/79/19 31/80/19 64/81/19 63/82/19
f 43/4/31 46/3/31 23/106/31 28/107/31
f 53/109/32 54/110/32 55/111/32 56/112/32
f 60/113/33 59/114/33 63/115/33 64/116/33
f 57/117/34 61/118/34 62/119/34 65/120/34
f 58/121/35 55/122/35 54/123/35 66/124/35
f 59/125/36 58/126/36 66/127/36 63/128/36
f 51/129/37 57/130/37 65/131/37 52/132/37
f 61/118/38 60/133/38 64/134/38 62/119/38
f 52/132/39 53/135/39 56/136/39 51/129/39
f 24/137/40 28/138/40 58/139/40 59/140/40
f 23/141/21 33/75/21 56/76/21 55/142/21
f 22/143/21 32/144/21 60/145/21 61/146/21
f 30/66/21 22/143/21 61/146/21 57/67/21
f 28/147/41 23/148/41 55/149/41 58/150/41
f 34/58/19 21/69/19 54/72/19 53/59/19
f 32/144/21 24/151/21 59/152/21 60/145/21
f 31/80/19 20/77/19 62/78/19 64/81/19
