# Blender 4.5.1 LTS
# www.blender.org
mtllib sword.mtl
o Cube
v 0.040000 0.500000 -0.010500
v 0.040000 -0.500000 -0.010500
v 0.040000 0.500000 0.010500
v 0.040000 -0.500000 0.010500
v -0.040000 0.500000 -0.010500
v -0.040000 -0.500000 -0.010500
v -0.040000 0.500000 0.010500
v -0.040000 -0.500000 0.010500
v -0.060035 -0.500000 0.000000
v 0.000000 -0.500000 -0.015000
v 0.040000 0.000000 -0.010500
v -0.040000 0.000000 0.010500
v 0.040000 0.000000 0.010500
v -0.040000 0.000000 -0.010500
v 0.000000 0.500000 0.015000
v 0.060035 0.500000 0.000000
v 0.000000 -0.500000 0.015000
v -0.060035 0.500000 0.000000
v 0.000000 0.500000 -0.015000
v 0.060035 -0.500000 0.000000
v 0.000000 0.000000 -0.015000
v 0.060035 0.000000 0.000000
v 0.000000 1.000000 0.015000
v -0.060035 0.000000 0.000000
v 0.000000 0.000000 0.015000
v 0.000000 1.015341 0.015000
v -0.060035 -1.000000 0.000000
v -0.040000 -1.000000 0.010500
v 0.000000 -1.250000 -0.003000
v -0.040000 -1.000000 -0.010500
v 0.000000 -1.250000 0.003000
v 0.040000 -1.000000 0.010500
v 0.060035 -1.000000 0.000000
v 0.040000 -1.000000 -0.010500
v 0.000000 -1.250000 0.000000
v -0.040000 1.000000 0.010500
v 0.060035 1.000000 0.000000
v 0.040000 1.000000 0.010500
v -0.060035 1.000000 0.000000
v -0.040000 1.000000 -0.010500
v 0.000000 1.000000 -0.015000
v 0.040000 1.000000 -0.010500
v -0.100000 1.015341 0.010500
v 0.100000 1.015341 0.000000
v 0.100000 1.015341 0.010500
v -0.100000 1.015341 0.000000
v -0.100000 1.015341 -0.010500
v 0.000000 1.015341 -0.015000
v 0.100000 1.015341 -0.010500
v 0.000000 1.143091 0.016960
v 0.000000 1.100097 0.015000
v -0.100000 1.100097 0.010500
v 0.100000 1.100097 0.000000
v 0.100000 1.100097 0.010500
v -0.100000 1.100097 0.000000
v -0.100000 1.100097 -0.010500
v 0.000000 1.100097 -0.015000
v 0.100000 1.100097 -0.010500
v 0.000000 1.469578 0.016960
v -0.044177 1.143091 0.009277
v 0.050000 1.143091 0.000000
v 0.044177 1.143091 0.009277
v -0.050000 1.143091 0.000000
v -0.044177 1.143091 -0.009277
v 0.000000 1.143091 -0.016960
v 0.044177 1.143091 -0.009277
v 0.000000 1.498286 0.033150
v -0.044177 1.469578 0.009277
v 0.050000 1.469578 0.000000
v 0.044177 1.469578 0.009277
v -0.050000 1.469578 0.000000
v -0.044177 1.469578 -0.009277
v 0.000000 1.469578 -0.016960
v 0.044177 1.469578 -0.009277
v 0.000000 1.567496 0.033150
v -0.070000 1.498286 0.017850
v 0.077000 1.498286 0.000000
v 0.070000 1.498286 0.017850
v -0.077000 1.498286 0.000000
v -0.070000 1.498286 -0.017850
v 0.000000 1.498286 -0.033150
v 0.070000 1.498286 -0.017850
v 0.000000 1.593287 0.015000
v -0.070000 1.567496 0.017850
v 0.077000 1.567496 0.000000
v 0.070000 1.567496 0.017850
v -0.077000 1.567496 0.000000
v -0.070000 1.567496 -0.017850
v 0.000000 1.567496 -0.033150
v 0.070000 1.567496 -0.017850
v 0.562831 0.944671 0.000000
v -0.050000 1.593287 0.010500
v 0.050000 1.593287 0.000000
v 0.050000 1.593287 0.010500
v -0.050000 1.593287 0.000000
v -0.050000 1.593287 -0.010500
v 0.000000 1.593287 -0.015000
v 0.050000 1.593287 -0.010500
v 0.000000 1.597922 0.000000
v 0.562831 0.944671 0.004540
v -0.562831 0.944671 0.000000
v -0.562831 0.944671 -0.004540
v 0.562831 0.944671 -0.004540
v -0.562831 0.944671 0.004540
v 0.562831 0.980670 0.000000
v 0.562831 0.980670 -0.004540
v -0.562831 0.980670 -0.004540
v 0.562831 0.980670 0.004540
v -0.562831 0.980670 0.000000
v -0.562831 0.980670 0.004540
vn 0.1118 -0.0000 -0.9937
vn -0.1118 -0.0000 0.9937
vn -0.4642 -0.0000 -0.8857
vn -0.0075 -0.0096 0.9999
vn 0.4642 -0.0000 0.8857
vn -0.1118 -0.0000 -0.9937
vn 0.4642 -0.0000 -0.8857
vn 0.0075 -0.0096 -0.9999
vn -0.4642 -0.0000 0.8857
vn 0.1118 -0.0000 0.9937
vn 0.5545 -0.1233 0.8230
vn -0.5545 -0.1233 0.8230
vn -0.5545 -0.1233 -0.8230
vn 0.5545 -0.1233 -0.8230
vn -0.0075 -0.0096 -0.9999
vn 0.0075 -0.0096 0.9999
vn 0.2826 -0.9206 0.2696
vn 0.0637 -0.1245 -0.9902
vn 0.2826 -0.9206 -0.2696
vn -0.0637 -0.1245 -0.9902
vn 0.1509 -0.9885 -0.0000
vn 0.0450 -0.0000 -0.9990
vn -0.0129 -0.0000 0.9999
vn -0.0450 -0.0000 -0.9990
vn -0.2826 -0.9206 0.2696
vn 0.0637 -0.1245 0.9902
vn -0.2826 -0.9206 -0.2696
vn -0.0637 -0.1245 0.9902
vn 0.6188 0.7641 -0.1822
vn -0.0841 0.0461 -0.9954
vn -0.0841 0.0461 0.9954
vn -0.6188 0.7641 -0.1822
vn -0.1509 -0.9885 -0.0000
vn 0.0450 -0.0000 0.9990
vn -0.2499 0.9683 -0.0000
vn -0.0450 -0.0000 0.9990
vn -0.1713 -0.0000 0.9852
vn -0.8470 -0.0000 -0.5316
vn 0.1713 -0.0000 0.9852
vn -0.8470 -0.0000 0.5316
vn 0.0841 0.0461 -0.9954
vn 0.6188 0.7641 0.1822
vn -0.6188 0.7641 0.1822
vn 0.0841 0.0461 0.9954
vn 0.1757 -0.4554 0.8728
vn -0.6735 -0.6671 0.3183
vn 0.6735 -0.6671 0.3183
vn 0.1757 -0.4554 -0.8728
vn -0.1713 -0.0000 -0.9852
vn 0.8470 -0.0000 -0.5316
vn 0.1713 -0.0000 -0.9852
vn 0.8470 -0.0000 0.5316
vn 0.9310 -0.0000 0.3651
vn 0.2135 -0.0000 -0.9769
vn 0.9310 -0.0000 -0.3651
vn -0.2135 -0.0000 -0.9769
vn -0.6735 -0.6671 -0.3183
vn -0.1757 -0.4554 0.8728
vn -0.1757 -0.4554 -0.8728
vn 0.6735 -0.6671 -0.3183
vn -0.1426 0.4825 -0.8642
vn -0.1426 0.4825 0.8642
vn -0.7149 0.6766 -0.1765
vn 0.1426 0.4825 0.8642
vn -0.9310 -0.0000 0.3651
vn 0.2135 -0.0000 0.9769
vn -0.9310 -0.0000 -0.3651
vn -0.2135 -0.0000 0.9769
vn -0.0536 0.9825 0.1786
vn 0.0536 0.9825 0.1786
vn 0.0536 0.9825 -0.1786
vn -0.0536 0.9825 -0.1786
vn 0.7149 0.6766 -0.1765
vn 0.1426 0.4825 -0.8642
vn 0.7149 0.6766 0.1765
vn -0.7149 0.6766 0.1765
vn 1.0000 -0.0000 -0.0000
vn -1.0000 -0.0000 -0.0000
vn 0.0129 -0.0000 -0.9999
vn 0.2499 0.9683 -0.0000
vn 0.0129 -0.0000 0.9999
vn -0.0129 -0.0000 -0.9999
vt 0.927538 0.226113
vt 0.898071 0.233656
vt 0.803620 -0.134643
vt 0.833087 -0.142186
vt -0.035302 0.630501
vt -0.035302 0.250284
vt -0.004885 0.250298
vt -0.004885 0.630514
vt 0.948312 0.613339
vt 0.853861 0.245041
vt 0.868610 0.241225
vt 0.963061 0.609523
vt -0.065720 1.010731
vt -0.035302 1.010718
vt -0.035302 1.581079
vt -0.065720 1.390948
vt -0.080955 0.630547
vt -0.080955 0.250330
vt -0.065720 0.250298
vt -0.065720 0.630514
vt 0.992522 0.601954
vt 1.021990 0.594411
vt 1.086973 0.970253
vt 1.116441 0.962710
vt 1.057513 0.977822
vt -0.080955 1.010763
vt 1.036755 0.590658
vt 1.131207 0.958956
vt 0.942304 0.222359
vt 1.228660 1.522735
vt 1.151964 1.346120
vt 1.042763 0.981637
vt 1.137214 1.349936
vt -0.080955 1.390980
vt -0.004885 1.010731
vt 0.010350 0.630547
vt 0.010350 1.010763
vt 0.010350 0.250330
vt -0.004885 -0.129919
vt 0.010350 -0.129887
vt -0.080955 -0.129887
vt -0.065720 -0.129919
vt -0.035302 -0.129933
vt -0.035302 1.581088
vt 0.010350 1.390980
vt -0.004885 1.390948
vt 1.228662 1.522744
vt 1.210892 1.331008
vt 1.225658 1.327254
vt 1.228662 0.491212
vt 1.236646 0.506448
vt 1.236646 0.536839
vt 1.228662 0.536839
vt 0.800721 -0.145943
vt 0.874385 -0.164820
vt 1.244631 0.491212
vt 1.244631 0.536839
vt 0.774159 -0.127073
vt 0.727065 -0.127039
vt 0.847852 -0.145939
vt 0.759409 -0.123258
vt 1.260600 0.435947
vt 1.252615 0.435947
vt 1.252615 0.083993
vt 1.256068 0.083993
vt 0.784711 -0.208374
vt 0.858374 -0.227251
vt 0.040742 -0.141585
vt 0.040742 -0.206036
vt 0.392696 -0.115201
vt 0.392696 -0.087827
vt 0.711054 -0.189471
vt 1.252615 0.466338
vt 1.244631 0.481574
vt 1.244631 0.435947
vt -0.111346 -0.141585
vt -0.035302 -0.141599
vt 1.260600 0.481574
vt 1.236646 0.130372
vt 1.228662 0.130372
vt 1.229591 0.083992
vt 1.236646 0.088382
vt 0.744052 -0.231681
vt 0.776588 -0.240049
vt -0.035302 -0.206050
vt -0.035302 -0.238750
vt -0.001708 -0.238727
vt 1.244631 0.818532
vt 1.252615 0.818532
vt 1.252615 0.851926
vt 1.245561 0.856315
vt 1.240099 0.888794
vt 1.236646 0.888794
vt -0.111346 -0.206036
vt 1.260600 0.818532
vt 1.252615 0.481574
vt 1.256068 0.481574
vt -0.035302 -0.487022
vt -0.001708 -0.486998
vt 1.249290 -0.238741
vt 1.242236 -0.238741
vt 1.242236 -0.487015
vt 1.249290 -0.487015
vt -0.068897 -0.238727
vt -0.068897 -0.486998
vt 1.235181 -0.238741
vt 1.235181 -0.487015
vt 0.809135 -0.248372
vt 1.244631 0.130372
vt 1.243701 0.083992
vt 1.259670 0.856315
vt -0.088533 -0.508855
vt -0.035302 -0.508902
vt 1.228662 -0.508846
vt 1.242236 -0.508846
vt 1.249290 -0.164281
vt 1.242236 -0.164281
vt 1.242236 -0.186112
vt 1.255809 -0.186112
vt 0.747460 -0.488861
vt 0.714913 -0.480539
vt 0.709478 -0.501733
vt 0.761052 -0.514911
vt 0.682378 -0.472171
vt 1.242236 0.083992
vt 1.235181 0.083992
vt 1.235181 -0.164281
vt 1.249290 0.083992
vt 1.242236 -0.238742
vt 1.255809 -0.238742
vt 0.696404 -0.552712
vt 0.747978 -0.565890
vt 1.228662 -0.186112
vt 1.228662 -0.238742
vt 0.657928 -0.488464
vt 0.644854 -0.539443
vt 1.255809 -0.508846
vt 0.017928 -0.508855
vt 0.654719 -0.562198
vt 0.691546 -0.571656
vt 0.017928 -0.561484
vt -0.035302 -0.561531
vt -0.035302 -0.581088
vt 0.002720 -0.581074
vt 1.255809 -0.561475
vt 1.242236 -0.561475
vt 1.242236 -0.581088
vt 1.250220 -0.581088
vt -0.088533 -0.561484
vt -0.073324 -0.581074
vt 1.228662 -0.561475
vt 1.242236 0.926022
vt 1.242236 0.888794
vt 1.250220 0.888794
vt 1.253642 0.926485
vt 1.242236 0.964177
vt 1.250220 0.964177
vt 1.234251 0.964177
vt 1.230829 0.926485
vt 1.234251 0.888794
vt 1.242236 0.987110
vt 1.228662 0.981833
vt 0.728379 -0.581088
vt 1.255809 0.981833
vt 1.234251 -0.581088
vt 1.235567 1.014484
vt 1.232114 1.014484
vt 1.232114 0.987109
vt 1.235567 0.987109
vt 1.228662 1.014484
vt 1.228662 0.987109
vt 1.232114 1.041859
vt 1.228662 1.041859
vt 1.228662 1.014484
vt 1.232114 1.014484
vt 1.235567 1.041859
vt 1.235567 1.014484
vt 1.221862 -0.226694
vt 1.228662 -0.200178
vt 1.249163 0.083993
vt 1.240099 0.491212
vt 1.236646 0.491212
vt 1.233194 0.491212
vt -0.463301 -0.087827
vt -0.463301 -0.115201
vt 0.399497 0.012464
vt 0.392696 -0.014052
vt 1.233194 0.888794
vt 1.249163 0.481574
s 0
g Cube_blade
usemtl blade
f 1/1/1 19/2/1 41/3/1 42/4/1
f 25/5/2 15/6/2 7/7/2 12/8/2
f 24/9/3 18/10/3 5/11/3 14/12/3
f 4/13/4 17/14/4 31/15/4 32/16/4
f 22/17/5 16/18/5 3/19/5 13/20/5
f 21/21/1 19/2/1 1/1/1 11/22/1
f 10/23/1 21/21/1 11/22/1 2/24/1
f 6/25/6 14/12/6 21/21/6 10/23/6
f 14/12/6 5/11/6 19/2/6 21/21/6
f 20/26/5 22/17/5 13/20/5 4/13/5
f 2/24/7 11/22/7 22/27/7 20/28/7
f 11/22/7 1/1/7 16/29/7 22/27/7
f 6/25/8 10/23/8 29/30/8 30/31/8
f 9/32/3 6/25/3 30/31/3 27/33/3
f 20/26/5 4/13/5 32/16/5 33/34/5
f 9/32/3 24/9/3 14/12/3 6/25/3
f 8/35/9 12/8/9 24/36/9 9/37/9
f 12/8/9 7/7/9 18/38/9 24/36/9
f 17/14/2 25/5/2 12/8/2 8/35/2
f 4/13/10 13/20/10 25/5/10 17/14/10
f 13/20/10 3/19/10 15/6/10 25/5/10
f 18/38/9 7/7/9 36/39/9 39/40/9
f 3/19/5 16/18/5 37/41/5 38/42/5
f 15/6/10 3/19/10 38/42/10 23/43/10
f 35/44/11 33/34/11 32/16/11 31/15/11
f 27/45/12 35/44/12 31/15/12 28/46/12
f 30/31/13 29/30/13 35/47/13 27/33/13
f 29/30/14 34/48/14 33/49/14 35/47/14
f 10/23/15 2/24/15 34/48/15 29/30/15
f 8/35/9 9/37/9 27/45/9 28/46/9
f 2/24/7 20/28/7 33/49/7 34/48/7
f 17/14/16 8/35/16 28/46/16 31/15/16
f 38/50/17 37/51/17 44/52/17 45/53/17
f 42/4/18 41/3/18 48/54/18 49/55/18
f 37/51/19 42/56/19 49/57/19 44/52/19
f 41/3/20 40/58/20 47/59/20 48/54/20
f 16/29/7 1/1/7 42/4/7 37/60/7
f 7/7/2 15/6/2 23/43/2 36/39/2
f 19/2/6 5/11/6 40/58/6 41/3/6
f 5/11/3 18/10/3 39/61/3 40/58/3
f 39/73/25 36/74/25 43/75/25 46/63/25
f 23/43/26 38/42/26 45/76/26 26/77/26
f 40/78/27 39/73/27 46/63/27 47/62/27
f 36/39/28 23/43/28 26/77/28 43/68/28
g Cube_handle
usemtl handle
f 53/79/29 58/80/29 66/81/29 61/82/29
f 57/66/30 56/72/30 64/83/30 65/84/30
f 52/69/31 51/85/31 50/86/31 60/87/31
f 56/88/32 55/89/32 63/90/32 64/91/32
f 60/87/37 50/86/37 59/98/37 68/99/37
f 64/100/38 63/101/38 71/102/38 72/103/38
f 50/86/39 62/104/39 70/105/39 59/98/39
f 63/101/40 60/106/40 68/107/40 71/102/40
f 58/67/41 57/66/41 65/84/41 66/108/41
f 54/109/42 53/79/42 61/82/42 62/110/42
f 55/89/43 52/95/43 60/111/43 63/90/43
f 51/85/44 54/94/44 62/104/44 50/86/44
f 65/84/49 64/83/49 72/124/49 73/121/49
f 61/125/50 66/126/50 74/127/50 69/117/50
f 66/108/51 65/84/51 73/121/51 74/120/51
f 62/128/52 61/125/52 69/117/52 70/116/52
g Cube_trim
usemtl trim
f 47/62/21 46/63/21 101/64/21 102/65/21
f 49/55/22 48/54/22 57/66/22 58/67/22
f 43/68/23 52/69/23 110/70/23 104/71/23
f 48/54/24 47/59/24 56/72/24 57/66/24
f 44/52/33 49/57/33 103/92/33 91/93/33
f 26/77/34 45/76/34 54/94/34 51/85/34
f 52/95/35 55/89/35 109/96/35 110/97/35
f 43/68/36 26/77/36 51/85/36 52/69/36
f 59/98/45 70/105/45 78/112/45 67/113/45
f 71/102/46 68/107/46 76/114/46 79/115/46
f 70/116/47 69/117/47 77/118/47 78/119/47
f 74/120/48 73/121/48 81/122/48 82/123/48
f 78/119/53 77/118/53 85/129/53 86/130/53
f 82/123/54 81/122/54 89/131/54 90/132/54
f 77/118/55 82/133/55 90/134/55 85/129/55
f 81/122/56 80/135/56 88/136/56 89/131/56
f 72/103/57 71/102/57 79/115/57 80/137/57
f 68/99/58 59/98/58 67/113/58 76/138/58
f 73/121/59 72/124/59 80/135/59 81/122/59
f 69/117/60 74/127/60 82/133/60 77/118/60
f 89/131/61 88/136/61 96/139/61 97/140/61
f 84/141/62 75/142/62 83/143/62 92/144/62
f 88/145/63 87/146/63 95/147/63 96/148/63
f 75/142/64 86/149/64 94/150/64 83/143/64
f 79/115/65 76/114/65 84/151/65 87/146/65
f 67/113/66 78/112/66 86/149/66 75/142/66
f 80/137/67 79/115/67 87/146/67 88/145/67
f 76/138/68 67/113/68 75/142/68 84/141/68
f 99/152/69 95/153/69 92/154/69 83/155/69
f 93/156/70 99/152/70 83/155/70 94/157/70
f 98/158/71 97/159/71 99/152/71 93/156/71
f 97/159/72 96/160/72 95/153/72 99/152/72
f 85/161/73 90/162/73 98/158/73 93/156/73
f 90/132/74 89/131/74 97/140/74 98/163/74
f 86/164/75 85/161/75 93/156/75 94/157/75
f 87/146/76 84/151/76 92/165/76 95/147/76
f 100/166/77 91/167/77 105/168/77 108/169/77
f 91/167/77 103/170/77 106/171/77 105/168/77
f 101/172/78 104/173/78 110/174/78 109/175/78
f 102/176/78 101/172/78 109/175/78 107/177/78
f 49/55/79 58/67/79 106/178/79 103/179/79
f 46/63/21 43/75/21 104/180/21 101/64/21
f 53/79/80 54/109/80 108/181/80 105/182/80
f 58/80/80 53/79/80 105/182/80 106/183/80
f 54/94/81 45/76/81 100/184/81 108/185/81
f 56/72/82 47/59/82 102/186/82 107/187/82
f 45/53/33 44/52/33 91/93/33 100/188/33
f 55/89/35 56/88/35 107/189/35 109/96/35
